<svg width="803" height="739" viewBox="0 0 803 739" fill="none" xmlns="http://www.w3.org/2000/svg">
<path fill-rule="evenodd" clip-rule="evenodd" d="M370 71.3838C222.255 90.0591 108 216.187 108 369C108 521.813 222.255 647.941 370 666.616V590.805C263.832 572.746 183 480.313 183 369C183 257.687 263.832 165.254 370 147.195V71.3838ZM445 590.972C551.66 573.326 633 480.662 633 369C633 257.338 551.66 164.674 445 147.028V71.2591C593.229 89.4904 708 215.842 708 369C708 522.158 593.229 648.51 445 666.741V590.972Z" fill="white"/>
<path fill-rule="evenodd" clip-rule="evenodd" d="M520 0H445V127H520V0ZM520 636H445V738H520V636Z" fill="white"/>
<path fill-rule="evenodd" clip-rule="evenodd" d="M370 1H295V128H370V1ZM370 637H295V739H370V637Z" fill="white"/>
<rect x="671" y="331" width="132" height="75" fill="white"/>
<path fill-rule="evenodd" clip-rule="evenodd" d="M604.584 406C587.23 498.78 505.815 569 408 569C297.543 569 208 479.457 208 369C208 258.543 297.543 169 408 169C505.464 169 586.644 238.716 604.395 331H527.119C511.037 280.545 463.786 244 408 244C338.964 244 283 299.964 283 369C283 438.036 338.964 494 408 494C464.154 494 511.66 456.972 527.433 406H604.584Z" fill="white"/>
<path d="M-5.61691e-06 369.5L156 258.216L156 480.784L-5.61691e-06 369.5Z" fill="white"/>
</svg>
